<svg xmlns="http://www.w3.org/2000/svg" width="1200" height="900" viewBox="0 0 1200 900">
  <defs>
    <linearGradient id="bg" x1="0" x2="1" y1="0" y2="1">
      <stop offset="0%" stop-color="#fbf8f2"/>
      <stop offset="100%" stop-color="#eef5eb"/>
    </linearGradient>
    <linearGradient id="pack" x1="0" x2="1" y1="0" y2="1">
      <stop offset="0%" stop-color="#ead7b4"/>
      <stop offset="100%" stop-color="#dcc8a3"/>
    </linearGradient>
  </defs>
  <rect width="1200" height="900" fill="url(#bg)"/>
  <circle cx="1010" cy="120" r="130" fill="#2e7d32" opacity="0.08"/>
  <circle cx="170" cy="760" r="120" fill="#2e7d32" opacity="0.06"/>
  <rect x="170" y="120" rx="36" ry="36" width="860" height="620" fill="white" opacity="0.55"/>
  <g transform="translate(240,180)">
    <rect x="0" y="110" rx="26" ry="26" width="720" height="370" fill="url(#pack)" stroke="#ccb382"/>
    <rect x="76" y="208" rx="16" ry="16" width="560" height="86" fill="#2e7d32" opacity="0.95"/>
    <text x="360" y="88" text-anchor="middle" font-size="72" font-family="Georgia, serif" fill="#1f5c2f" font-weight="700">SobujCare</text>
    <text x="360" y="170" text-anchor="middle" font-size="34" font-family="Arial, sans-serif" fill="#2a5e31">Herbal Soap</text>
    <text x="360" y="264" text-anchor="middle" font-size="46" font-family="Arial, sans-serif" fill="white" font-weight="700">Neem Premium Box</text>
    <text x="360" y="332" text-anchor="middle" font-size="28" font-family="Arial, sans-serif" fill="#2b3b2d">Minimal kraft design with green accent</text>
    <text x="360" y="412" text-anchor="middle" font-size="24" font-family="Arial, sans-serif" fill="#2b3b2d">100g | Natural &amp; Handmade</text>
    <g transform="translate(330,18)">
      <path d="M-18 40 C-5 0, 25 0, 38 40 C10 42, -5 64, -18 40Z" fill="#2e7d32"/>
      <path d="M18 40 C5 0, -25 0, -38 40 C-10 42, 5 64, 18 40Z" fill="#74b45f"/>
    </g>
  </g>
</svg>